PathFileType	4	(x/y/z)	A01_SLOW_T0027.trc
DataRate	CameraRate	NumFrames	NumMarkers	Units	OrigDataRate	OrigDataStartFrame	OrigNumFrames
240	240	6	48	mm	240	128	340
Frame#	Time	TOP_HEAD			R_AC			L_AC			R_ASIS			L_ASIS			R_PSIS			L_PSIS			SACRAL			L_IC			R_IC			L_GT			R_GT			R_LAT_KNEE			R_MED_KNEE			L_MED_KNEE			L_LAT_KNEE			R_TOE			L_TOE			R_1ST_MET			L_1ST_MET			L_5TH_MET			R_5TH_MET			R_LAT_ANK			R_MED_ANK			L_MED_ANK			L_LAT_ANK			L_HEEL_SUP			R_HEEL_SUP			L_HEEL_LAT			R_HEEL_LAT			L_HEEL_MED			R_HEEL_MED			R_LL_PROX_POST			R_LL_PROX_ANT			R_LL_DIST_ANT			R_LL_DIST_POST			R_THIGH_PROX_POST			R_THIGH_PROX_ANT			R_THIGH_DIST_ANT			R_THIGH_DIST_POST			L_PROS_PROX_ANT			L_PROS_PROX_POST			L_PROS_DIST_POST			L_PROS_DIST_ANT			L_THIGH_PROX_ANT			L_THIGH_PROX_POST			L_THIGH_DIST_POST			L_THIGH_DIST_ANT			
		X1	Y1	Z1	X2	Y2	Z2	X3	Y3	Z3	X4	Y4	Z4	X5	Y5	Z5	X6	Y6	Z6	X7	Y7	Z7	X8	Y8	Z8	X9	Y9	Z9	X10	Y10	Z10	X11	Y11	Z11	X12	Y12	Z12	X13	Y13	Z13	X14	Y14	Z14	X15	Y15	Z15	X16	Y16	Z16	X17	Y17	Z17	X18	Y18	Z18	X19	Y19	Z19	X20	Y20	Z20	X21	Y21	Z21	X22	Y22	Z22	X23	Y23	Z23	X24	Y24	Z24	X25	Y25	Z25	X26	Y26	Z26	X27	Y27	Z27	X28	Y28	Z28	X29	Y29	Z29	X30	Y30	Z30	X31	Y31	Z31	X32	Y32	Z32	X33	Y33	Z33	X34	Y34	Z34	X35	Y35	Z35	X36	Y36	Z36	X37	Y37	Z37	X38	Y38	Z38	X39	Y39	Z39	X40	Y40	Z40	X41	Y41	Z41	X42	Y42	Z42	X43	Y43	Z43	X44	Y44	Z44	X45	Y45	Z45	X46	Y46	Z46	X47	Y47	Z47	X48	Y48	Z48	

128	0.53073	-89.351	1755.1	257.06	-332.49	1570.9	498.02	-331.49	1550.4	40.662	-331.92	1104.3	496.48	-305.87	1030.7	148.67	-540.9	1079.3	361.02	-526.2	1087	229.06	-548.91	1052.7	293.51	-329.29	1144.9	102.15	-363.82	1202.8	496.2	-371.59	950.91	109.48	-383.11	989.12	540.73	-260.08	597.2	506.63	-205.92	593.36	383.65	-386.82	555.91	340.41	-410.69	565.47	184.24	-103.85	97.581	467.02	-322.99	79.99	239.58	-174.81	74.256	406.38	-401.89	57.236	297.76	-436.13	47.503	171.48	-227.84	70.161	529.75	-338.01	135.26	480.76	-310.97	140.69	382.79	-517.68	136.35	285.46	-552.94	132.42	218.26	-645.59	88.166	261.41	-421.98	98.6	405.18	-636.33	58.302	229.97	-423.2	76.584	441.68	-625.72	57.597	293.49	-407.11	71.692	383.08	-373.47	436.4	488.17	-312.75	419.84	525.14	-317.88	344.99	511.27	-367.05	353.53	486.4	-370.38	838.27	527.89	-311.28	879.34	535.01	-278.39	794.03	533.35	-334.81	755.75	523.15	-381.71	475.36	196.91	-436.04	486.33	187.11	-454.4	426.75	196.39	-400.7	423.08	204.2	-324.54	805.52	152.77	-393.05	816.5	133.9	-389.59	741.49	149.97	-326.85	732.41	167.31
129	0.53491	-84.918	1754.9	257.99	-328.45	1570.5	498.53	-326.67	1550.6	41.189	-327.8	1104	496.61	-301.81	1030.2	148.77	-536.59	1079.4	361.26	-521.92	1087.1	229.28	-544.72	1052.8	293.73	-325.02	1144.8	102.36	-359.65	1202.4	496.46	-367.9	950.68	109.57	-378.72	988.89	540.88	-255.29	596.84	506.01	-201.33	593.55	382.91	-385.86	555.76	340.68	-409.63	565.41	184.47	-88.065	100.86	467.42	-322.93	79.931	239.57	-158.43	75.723	406.79	-401.85	57.233	297.75	-436.09	47.523	171.48	-211.43	70.703	530.16	-323.05	133	480.97	-296.14	138.84	383.01	-517.57	136.46	285.54	-552.72	132.65	218.28	-645.47	88.379	261.38	-406.01	94.057	405.45	-636.27	58.523	229.95	-406.83	72.179	442.01	-625.69	57.808	293.47	-390.64	67.523	383.49	-365.47	433.43	487.96	-304.34	418.28	524.87	-307.81	343.35	511.08	-357.24	350.73	486.2	-365.95	837.94	527.63	-306.9	878.99	534.94	-273.98	793.7	532.96	-330.39	755.44	522.59	-380.8	475.24	197.11	-435.1	486.33	187.31	-453.59	426.79	196.55	-399.9	423	204.38	-321.76	805.1	152.99	-390.17	816.45	134.08	-387.14	741.42	150.19	-324.47	732.01	167.55
130	0.53909	-80.469	1754.8	258.92	-324.38	1570.2	499.06	-321.84	1550.8	41.735	-323.69	1103.7	496.76	-297.76	1029.8	148.88	-532.27	1079.4	361.52	-517.65	1087.2	229.54	-540.53	1052.9	293.99	-320.76	1144.8	102.56	-355.46	1202	496.73	-364.23	950.44	109.66	-374.31	988.62	541.04	-250.56	596.43	505.38	-196.8	593.71	382.14	-384.89	555.61	340.95	-408.55	565.34	184.71	-72.449	104.32	467.72	-322.87	79.874	239.56	-142.21	77.406	407.14	-401.82	57.227	297.74	-436.06	47.543	171.48	-195.1	71.445	530.53	-308.11	130.92	481.22	-281.39	137.19	383.25	-517.45	136.56	285.62	-552.49	132.87	218.3	-645.35	88.599	261.35	-390.07	89.746	405.79	-636.22	58.746	229.93	-390.46	68.003	442.4	-625.65	58.022	293.45	-374.19	63.593	383.95	-357.46	430.5	487.76	-295.97	416.76	524.59	-297.76	341.78	510.91	-347.43	348	486.03	-361.57	837.58	527.37	-302.53	878.58	534.87	-269.63	793.3	532.57	-326.04	755.08	522.03	-379.88	475.12	197.31	-434.15	486.33	187.5	-452.78	426.83	196.71	-399.09	422.91	204.56	-318.99	804.67	153.21	-387.31	816.38	134.26	-384.69	741.34	150.41	-322.1	731.59	167.78
131	0.54326	-76.002	1754.5	259.85	-320.27	1569.8	499.6	-317.01	1551	42.3	-319.59	1103.4	496.93	-293.73	1029.3	148.98	-527.93	1079.4	361.82	-513.37	1087.2	229.83	-536.33	1053	294.29	-316.53	1144.8	102.77	-351.24	1201.6	497.01	-360.58	950.18	109.75	-369.88	988.33	541.21	-245.91	595.97	504.74	-192.35	593.81	381.35	-383.89	555.45	341.21	-407.46	565.27	184.94	-57.018	107.97	467.93	-322.8	79.816	239.54	-126.16	79.298	407.43	-401.79	57.218	297.73	-436.02	47.563	171.48	-178.85	72.386	530.87	-293.22	129.03	481.49	-266.74	135.73	383.49	-517.32	136.67	285.7	-552.25	133.1	218.32	-645.24	88.828	261.33	-374.18	85.671	406.19	-636.16	58.975	229.91	-374.1	64.064	442.84	-625.61	58.242	293.44	-357.79	59.906	384.46	-349.46	427.61	487.58	-287.62	415.28	524.32	-287.75	340.3	510.74	-337.63	345.36	485.87	-357.22	837.19	527.12	-298.19	878.13	534.81	-265.31	792.85	532.2	-321.74	754.68	521.48	-378.94	474.99	197.51	-433.19	486.32	187.69	-451.95	426.87	196.86	-398.26	422.83	204.73	-316.22	804.21	153.42	-384.45	816.29	134.45	-382.24	741.25	150.63	-319.74	731.17	168.01
132	0.54744	-71.518	1754.3	260.78	-316.12	1569.4	500.16	-312.17	1551.1	42.883	-315.51	1103.1	497.11	-289.71	1028.8	149.08	-523.58	1079.4	362.15	-509.09	1087.2	230.16	-532.13	1053	294.62	-312.31	1144.7	102.98	-346.98	1201.1	497.3	-356.95	949.91	109.86	-365.42	987.99	541.39	-241.33	595.48	504.08	-187.96	593.87	380.53	-382.87	555.28	341.47	-406.35	565.19	185.18	-41.784	111.79	468.04	-322.73	79.758	239.53	-110.29	81.394	407.66	-401.76	57.205	297.72	-435.98	47.583	171.48	-162.7	73.522	531.18	-278.38	127.34	481.79	-252.19	134.45	383.75	-517.18	136.79	285.77	-552.01	133.33	218.34	-645.12	89.065	261.3	-358.34	81.836	406.64	-636.11	59.209	229.89	-357.77	60.365	443.34	-625.56	58.467	293.42	-341.45	56.467	385.01	-341.45	424.77	487.4	-279.32	413.86	524.05	-277.77	338.9	510.59	-327.85	342.8	485.73	-352.9	836.76	526.87	-293.85	877.62	534.75	-261.04	792.33	531.83	-317.5	754.24	520.95	-377.99	474.86	197.7	-432.2	486.31	187.87	-451.11	426.91	197.01	-397.42	422.73	204.91	-313.45	803.75	153.62	-381.59	816.19	134.63	-379.8	741.14	150.84	-317.38	730.73	168.22
133	0.55162	-67.015	1754.1	261.71	-311.92	1568.9	500.73	-307.32	1551.3	43.485	-311.43	1102.7	497.3	-285.7	1028.2	149.17	-519.21	1079.4	362.52	-504.81	1087.3	230.53	-527.92	1053.1	294.99	-308.11	1144.6	103.19	-342.69	1200.7	497.61	-353.34	949.62	109.97	-360.93	987.63	541.57	-236.8	594.94	503.41	-183.64	593.88	379.69	-381.81	555.11	341.72	-405.22	565.11	185.4	-26.759	115.77	468.07	-322.66	79.698	239.52	-94.621	83.686	407.84	-401.74	57.188	297.72	-435.94	47.604	171.48	-146.67	74.851	531.44	-263.6	125.86	482.12	-237.76	133.37	384.03	-517.02	136.91	285.84	-551.76	133.56	218.36	-645.01	89.312	261.28	-342.58	78.241	407.16	-636.05	59.449	229.87	-341.49	56.908	443.89	-625.51	58.699	293.4	-325.19	53.274	385.62	-333.46	421.99	487.24	-271.05	412.49	523.77	-267.84	337.59	510.46	-318.08	340.34	485.6	-348.6	836.3	526.64	-289.53	877.07	534.71	-256.8	791.76	531.48	-313.29	753.76	520.43	-377.01	474.72	197.88	-431.2	486.3	188.06	-450.24	426.95	197.16	-396.56	422.64	205.08	-310.68	803.26	153.82	-378.74	816.08	134.83	-377.35	741.02	151.05	-315.01	730.29	168.43
